<mxfile host="app.diagrams.net" modified="2023-02-23T05:54:49.815Z" agent="5.0 (Macintosh; Intel Mac OS X 10_15_7) AppleWebKit/537.36 (KHTML, like Gecko) Chrome/110.0.0.0 Safari/537.36" etag="OM5C6hF3axqCAw--vfLH" version="20.8.22" type="github">
  <diagram name="第 1 页" id="xcLtO7XaCeu1rpA9z8i8">
    <mxGraphModel dx="1434" dy="802" grid="0" gridSize="10" guides="1" tooltips="1" connect="1" arrows="1" fold="1" page="1" pageScale="1" pageWidth="827" pageHeight="1169" background="none" math="0" shadow="0">
      <root>
        <mxCell id="0" />
        <mxCell id="1" parent="0" />
        <mxCell id="Xw4TS9QuK_xohdVHydM4-1" value="" style="rounded=1;whiteSpace=wrap;html=1;sketch=1;hachureGap=4;jiggle=2;curveFitting=1;fontFamily=Architects Daughter;fontSource=https%3A%2F%2Ffonts.googleapis.com%2Fcss%3Ffamily%3DArchitects%2BDaughter;fontSize=20;aspect=fixed;fillColor=#fff2cc;strokeColor=default;labelBorderColor=#2155FF;fillStyle=auto;gradientColor=#C892A2;glass=0;" vertex="1" parent="1">
          <mxGeometry x="120" y="90" width="730" height="410" as="geometry" />
        </mxCell>
      </root>
    </mxGraphModel>
  </diagram>
</mxfile>
